<svg width="36" height="37" viewBox="0 0 36 37" fill="none" xmlns="http://www.w3.org/2000/svg">
<path d="M17.7416 31.301C16.6116 25.8368 10.8777 22.4808 5.10997 23.6276C5.10997 23.6276 4.97505 27.4727 8.75273 29.8844C13.6941 33.038 17.7416 31.301 17.7416 31.301Z" stroke="#5C7AFF" stroke-width="1.26147" stroke-miterlimit="10"/>
<path d="M19.0068 31.301C20.1368 25.8368 25.8707 22.4808 31.6384 23.6276C31.6384 23.6276 31.7733 27.4727 27.9957 29.8844C23.0375 33.038 19.0068 31.301 19.0068 31.301Z" stroke="#5C7AFF" stroke-width="1.26147" stroke-miterlimit="10"/>
<path d="M26.0742 27.4111C25.7634 27.7268 25.4239 28.0259 25.0625 28.2803L25.0596 28.2822C24.6241 28.6172 24.1713 28.9196 23.7012 29.2051C23.2318 29.49 22.7627 29.7419 22.2598 29.9766C21.858 30.1641 21.4447 30.3271 21.0225 30.4629C21.3364 30.1528 21.6645 29.8643 22.0244 29.5977L22.0264 29.5967C22.4618 29.2618 22.9147 28.9602 23.3848 28.6748C23.8542 28.3898 24.3233 28.138 24.8262 27.9033C25.2315 27.7141 25.648 27.5476 26.0742 27.4111Z" fill="#5C7AFF" stroke="#5C7AFF" stroke-width="0.168646"/>
<path d="M10.9033 27.4131C11.3264 27.5453 11.7377 27.7024 12.1377 27.9023H12.1396C12.6273 28.1378 13.1131 28.3901 13.582 28.6748C14.0513 28.9597 14.4876 29.2611 14.9238 29.5967L14.9268 29.5986C15.2875 29.8525 15.6267 30.1512 15.9463 30.4668C15.5226 30.3344 15.1105 30.1778 14.71 29.9775L14.708 29.9766C14.2205 29.7412 13.7344 29.4897 13.2656 29.2051C12.7955 28.9196 12.3427 28.6172 11.9072 28.2822C11.5585 28.014 11.2215 27.7238 10.9033 27.4131Z" fill="#5C7AFF" stroke="#5C7AFF" stroke-width="0.168646"/>
<path d="M18.1797 0.0839844C23.8331 0.0839844 28.1338 1.48073 31.0742 4.43359C34.0153 7.3872 35.6099 11.9127 35.8203 18.2002C35.997 23.4683 35.003 27.8824 32.2656 31.0342C29.5292 34.1848 25.0364 36.0907 18.1777 36.3096H18.1758C17.8579 36.3263 17.5395 36.3262 17.2188 36.3262C10.9062 36.3262 6.62731 34.234 3.9248 30.9307C1.22022 27.6245 0.0840392 23.0931 0.0839844 18.1973C0.0839844 13.1062 1.20379 8.57963 4.01855 5.32715C6.83128 2.07716 11.3497 0.084054 18.1797 0.0839844Z" stroke="#5C7AFF" stroke-width="1.26147"/>
<path d="M4.72168 20.12C9.44377 20.12 14.149 21.5703 18.4663 24.1C23.0704 20.6259 26.7131 19.9513 31.1991 20.2212L28.4165 6.40904C28.3153 6.07175 27.9948 5.78505 27.6575 5.86937C23.1041 6.93184 21.3502 8.06177 17.9098 12.514C15.3801 9.14111 12.4794 6.72947 8.98842 5.97056C8.668 5.9031 8.3307 6.08861 8.24638 6.40904L4.72168 20.12Z" stroke="#5C7AFF" stroke-width="1.26147" stroke-miterlimit="10"/>
<path d="M17.0391 18.8711H18.7441C18.8034 18.8804 18.8483 18.9134 18.8721 18.9629L18.8887 19.0186C18.8972 19.0946 18.8436 19.1615 18.7451 19.1748H17.0156C16.9541 19.1746 16.9031 19.1345 16.8857 19.0781L16.8809 19.0166V19.0059C16.881 18.9441 16.9218 18.8932 16.9785 18.876L17.0391 18.8711Z" fill="#5C7AFF" stroke="#5C7AFF" stroke-width="0.168646"/>
<path d="M17.0498 16.2744H18.7529C18.8413 16.2744 18.9043 16.3384 18.9043 16.4268C18.9042 16.515 18.8412 16.5781 18.7529 16.5781H17.0498C16.9745 16.5781 16.8976 16.5112 16.8975 16.4268C16.8975 16.3384 16.9615 16.2744 17.0498 16.2744Z" fill="#5C7AFF" stroke="#5C7AFF" stroke-width="0.168646"/>
</svg>
