<svg width="597" height="726" viewBox="0 0 597 726" fill="none" xmlns="http://www.w3.org/2000/svg">
<mask id="mask0_1_455" style="mask-type:luminance" maskUnits="userSpaceOnUse" x="0" y="0" width="597" height="726">
<path d="M596.89 0H0V725.29H596.89V0Z" fill="#5C7AFF"/>
</mask>
<g mask="url(#mask0_1_455)">
<path d="M596.87 220.95C596.7 218.63 596.47 216.2 596.19 213.69C594.64 200.29 591.53 187.77 586.94 176.48C576.6 151.15 559.21 132.31 535.24 120.47C515.65 110.82 491.52 105.9 463.52 105.83L459.94 99.09L459.49 98.33C455.36 92.34 450.71 86.74 446.29 81.57C437.82 71.72 430.35 64.35 422.79 58.42C412.45 50.32 400.48 44.1 387.22 39.93C378.65 37.25 369.07 35.11 357.95 33.39C354.83 32.9 351.57 32.54 348.21 32.18C342.45 31.56 336.49 30.92 330.67 29.43C321.56 27.08 313.28 21.68 307.36 14.24C306.34 12.95 305.36 11.56 304.48 10.07L298.45 -0.0100098L292.42 10.08C291.53 11.57 290.57 12.96 289.57 14.23C283.64 21.69 275.35 27.09 266.25 29.43C260.41 30.93 254.46 31.56 248.69 32.19C245.34 32.55 242.08 32.91 238.97 33.4C227.82 35.12 218.25 37.26 209.69 39.94C196.41 44.11 184.44 50.34 174.12 58.43C166.53 64.38 159.07 71.74 150.62 81.58C146.43 86.46 141.59 92.25 137.4 98.37L133.4 105.83C105.39 105.9 81.26 110.83 61.66 120.47C44.91 128.74 31.26 140.53 21.09 155.53C10.2 171.56 3.34999 191.13 0.759995 213.69C0.439995 216.49 0.189995 219.14 0.00999451 222.21V725.27H596.91V243.08L596.87 220.95Z" fill="#5C7AFF"/>
</g>
<mask id="mask7_1_455" style="mask-type:luminance" maskUnits="userSpaceOnUse" x="58" y="242" width="481" height="292">
<path d="M120.08 280.04L58.04 521.85C94.21 546.11 147.7 517.71 147.72 516.66C235.6 460.02 298.44 533.84 298.44 533.84C298.44 533.84 361.3 460.02 449.18 516.66C449.2 517.7 502.68 546.11 538.85 521.85L476.81 280.04C476.81 280.04 442.75 242.47 386.25 242.47C361.09 242.47 331.49 249.92 298.45 271.45C265.42 249.92 235.81 242.47 210.66 242.47C154.14 242.46 120.08 280.04 120.08 280.04Z" fill="#5C7AFF"/>
</mask>
<g mask="url(#mask7_1_455)">
<path d="M538.86 242.46H58.04V546.12H538.86V242.46Z" fill="#5C7AFF" opacity="0.9"/>
</g>
<path d="M327.99 97.66C344.4 95.22 355.46 115.51 355.46 115.51C353.31 83.02 318.83 87.81 318.83 87.81C327.57 80.94 345.28 89.67 345.28 89.67C332.41 71.58 313.96 76.76 313.96 76.76C316.16 72.59 329.39 73.49 329.39 73.49C317.38 61.66 303.33 73.54 303.33 73.54C304 67.02 298.44 56.81 298.44 56.81C298.44 56.81 292.89 67.03 293.56 73.54C293.56 73.54 279.51 61.66 267.5 73.49C267.5 73.49 280.73 72.58 282.94 76.76C282.94 76.76 264.49 71.59 251.62 89.67C251.62 89.67 269.32 80.93 278.07 87.81C278.07 87.81 243.59 83.02 241.44 115.51C241.44 115.51 252.49 95.22 268.9 97.66C268.9 97.66 233.8 107.61 250.59 138.89C250.59 138.89 249.68 112.97 269.91 107.09C269.91 107.09 243.31 128.34 267.27 146.27C267.27 146.27 262.31 126.14 276.21 116.94C276.21 116.94 266.37 139.54 285.53 158.59C285.53 158.59 281.6 139.24 293.94 128.61V162.17C293.78 166.99 293.42 172.7 293.2 176.9C292.79 184.49 292.39 190.08 292.37 190.32C291.34 195.05 291.33 198.21 291.33 198.25V198.3L291.44 200.55L291.58 203.35L291.01 204.88L290.86 205.3C290.22 206.46 289.95 207.52 289.95 208.41C289.95 209.92 290.64 210.89 291.05 211.32L289.79 235.18C286.35 238.8 283.4 245.31 283.37 245.34L282.88 246.42H314L313.5 245.34C313.48 245.32 310.51 238.8 307.08 235.17L305.83 211.32C306.24 210.88 306.92 209.92 306.92 208.41C306.92 207.52 306.66 206.46 306.01 205.3L305.7 204.43L305.29 203.34L305.44 200.25L305.54 198.29V198.24C305.54 198.2 305.53 195.05 304.5 190.32C304.48 190.16 304.08 184.55 303.67 176.9C303.45 172.69 303.08 166.97 302.93 162.15V128.59C315.28 139.22 311.34 158.57 311.34 158.57C330.49 139.53 320.66 116.92 320.66 116.92C334.56 126.12 329.6 146.25 329.6 146.25C353.56 128.31 326.97 107.07 326.97 107.07C347.18 112.95 346.27 138.87 346.27 138.87C363.1 107.6 327.99 97.66 327.99 97.66Z" fill="#5C7AFF"/>
</svg>
