<svg width="303" height="435" viewBox="0 0 303 435" fill="none" xmlns="http://www.w3.org/2000/svg">
<path d="M225.1 74.6C252 97 269.5 128.7 274 163.4C274.4 166.5 274.6 169.5 274.6 172.6V309.3H266V173.2C266 169.9 265.7 166.6 265.2 163.3C260.8 131.2 244.5 101.9 219.6 81.2C199.5 65 177.2 51.7 153.4 41.5C129.6 51.6 107.4 65 87.2 81.2C60.7 103.3 44.1 135 40.9 169.3V309.4H32.3V168.9C35.6 132.2 53.3 98.2 81.7 74.6C103.4 57.1 127.6 42.8 153.3 32.3C179.2 42.9 203.3 57.2 225.1 74.6Z" fill="#5C7AFF"/>
<path d="M252.5 165.8C252.8 168.2 252.9 170.5 253 172.8V309.3H248.7V173.2C248.7 170.7 248.5 168.2 248.2 165.8C244.3 138 230.3 112.6 208.7 94.7C191.8 81.1 173.2 69.6 153.4 60.5C133.7 69.6 115.2 81.1 98.2 94.7C76.6 112.6 62.5 138 58.7 165.8C58.3 168.2 58.1 170.7 58.1 173.2V309.4H53.9V172.8C53.9 170.5 54.1 168.1 54.4 165.8C58.3 136.7 72.9 110.1 95.5 91.3C113.2 77 132.6 65.1 153.4 55.8C174.2 65.1 193.6 77 211.3 91.3C233.9 110.1 248.5 136.7 252.5 165.8Z" fill="#5C7AFF"/>
<path d="M235.7 172.8V309.3H233.5V173C233.5 171.4 233.4 169.8 233.1 168.2C229.9 144 217.7 121.9 199 106.3C184.9 94.9 169.7 85.3 153.4 77.3C137.1 85.3 121.9 95 107.7 106.3C89 121.9 76.9 144 73.7 168.1C73.4 169.7 73.3 171.3 73.3 172.9V309.3H71.1V172.8C71.1 171.2 71.2 169.7 71.5 168.1C74.7 143.3 87.2 120.6 106.4 104.7C120.9 93 136.7 83 153.4 74.8C170.1 83 185.9 92.9 200.4 104.6C219.6 120.7 232.1 143.3 235.3 168.1C235.5 169.7 235.7 171.3 235.7 172.8Z" fill="#5C7AFF"/>
<path d="M220.5 172.7V309.4H219.4V172.7C219.4 171.9 219.4 171.1 219.3 170.4C216.6 149.6 206.1 130.6 190.2 117.2C178.7 108 166.4 99.9 153.5 93C140.5 99.9 128.2 107.9 116.8 117.2C100.8 130.6 90.4 149.6 87.7 170.4C87.6 171.2 87.6 171.9 87.6 172.7V309.3H86.5V172.7C86.5 171.9 86.6 171.2 86.7 170.4C89.4 149.3 100 130 116.2 116.4C127.9 107.1 140.4 98.8 153.6 91.9C166.9 98.9 179.3 107.1 191 116.4C207.3 130 217.8 149.3 220.5 170.4C220.5 171.1 220.5 171.9 220.5 172.7Z" fill="#5C7AFF"/>
<path fill-rule="evenodd" clip-rule="evenodd" d="M302 357.8V404.9H90.4V327.7H107.6V387.7H120.6V327.7H137.7V357.8H211.6V387.8H224.6V357.8H241.8V387.8H254.8V357.8H272V387.8H285V357.8H302ZM194.4 375.1H137.7V387.8H194.4V375.1Z" fill="#5C7AFF"/>
<path d="M150.9 327.7H302V344.8H150.9V327.7Z" fill="#5C7AFF"/>
<path fill-rule="evenodd" clip-rule="evenodd" d="M77.4 327.7V404.9H30.1V344.9H17.1V404.9H0V327.7H77.4ZM60.2 344.8H47.2V387.8H60.2V344.8Z" fill="#5C7AFF"/>
<path d="M0 417.5H302V434.6H0V417.5Z" fill="#5C7AFF"/>
<path d="M17.1 309.4H0V170.9C0 168.4 0.0999939 165.9 0.399994 163.3C5.09999 119.6 26.6 79.4 60.4 51.4C87.7 29.4 118.3 12.1 151.1 0.100006C183.9 12.1 214.5 29.4 241.8 51.4C275.6 79.4 297.1 119.6 301.8 163.3C302.1 165.9 302.2 168.4 302.2 170.9V309.4H285.1V171.9C285.1 169.1 284.9 166.3 284.6 163.4C280 124.8 260.8 89.4 230.8 64.5C206.7 45 179.9 29.4 151 18.3C122.2 29.5 95.3 45.1 71.2 64.5C41.2 89.3 22.1 124.7 17.4 163.4C17.1 166.2 16.9 169 16.9 171.9L17.1 309.4Z" fill="#5C7AFF"/>
</svg>
